<svg width="1131" height="969" xmlns="http://www.w3.org/2000/svg" xmlns:xlink="http://www.w3.org/1999/xlink" xml:space="preserve" overflow="hidden"><defs><clipPath id="clip0"><rect x="750" y="580" width="1131" height="969"/></clipPath></defs><g clip-path="url(#clip0)" transform="translate(-750 -580)"><path d="M1234.81 803.359C1087.52 803.359 968.122 920.276 968.122 1064.5 968.122 1208.72 1087.52 1325.64 1234.81 1325.64 1382.09 1325.64 1501.49 1208.72 1501.49 1064.5 1501.49 920.276 1382.09 803.359 1234.81 803.359ZM1139.09 580 1330.53 580 1330.53 672.36 1397.74 672.36 1448.13 722.716 1514.86 657.613 1648.59 794.518 1583.51 858.009 1626 900.474 1626 968.84 1719.61 968.84 1719.61 1054.6 1753.33 1054.6 1756.39 1039.68C1766.24 1016.79 1789.29 1000.73 1816.15 1000.73 1851.97 1000.73 1881 1029.28 1881 1064.5 1881 1099.72 1851.97 1128.27 1816.15 1128.27 1789.29 1128.27 1766.24 1112.21 1756.39 1089.32L1754.23 1078.79 1719.61 1078.79 1719.61 1160.16 1626 1160.16 1626 1223.09 1574.12 1274.93 1641.95 1344.38 1504.96 1478.02 1438.74 1410.23 1397.74 1451.2 1330.53 1451.2 1330.53 1549 1139.09 1549 1139.09 1451.2 1071.87 1451.2 1024.24 1403.6 954.748 1471.39 890.691 1405.81 876.456 1420.03 882.378 1429.01C891.612 1452.15 886.678 1479.79 867.684 1498.77 842.358 1524.08 801.625 1524.41 776.704 1499.51 751.783 1474.6 752.112 1433.9 777.438 1408.59 796.432 1389.6 824.093 1384.67 847.25 1393.9L859.979 1402.29 873.782 1388.5 821.023 1334.48 888.86 1268.3 843.613 1223.09 843.613 1160.16 750 1160.16 750 968.84 843.613 968.84 843.613 900.474 892.806 851.312 827.661 784.619 884.966 728.716 866.581 710.342 853.851 718.732C830.695 727.96 803.034 723.029 784.039 704.047 758.713 678.736 758.385 638.029 783.305 613.124 808.226 588.219 848.959 588.548 874.285 613.858 893.279 632.84 898.213 660.484 888.98 683.626L883.058 692.599 902.289 711.818 964.654 650.978 1028.18 716.019 1071.87 672.36 1139.09 672.36Z" fill="#156082" fill-rule="evenodd"/><g><g><g><path d="M431.853 288.097C442.372 330.756 398.544 372.831 355.3 355.3 319.069 342.444 305.044 300.369 330.172 264.138 386.856 188.753 345.366 70.125 251.281 29.2188 293.941 109.862 228.491 184.078 191.091 215.05 153.691 246.022 128.562 278.163 120.966 296.862 82.9812 389.194 139.666 477.434 178.234 498.472 160.703 458.734 144.341 382.766 213.297 311.472 213.297 311.472 193.428 387.441 236.672 440.034 279.916 492.628 279.331 531.781 279.331 531.781 346.534 531.781 410.231 491.459 437.113 425.425 457.566 386.272 459.319 324.328 431.853 288.097" fill="#156082" transform="matrix(1.02852 0 0 1 948 783)"/></g></g></g></g></svg>